<svg width="76" height="19" viewBox="0 0 76 19" fill="none" xmlns="http://www.w3.org/2000/svg">
<path d="M23.7145 3.48284C23.4368 2.40658 22.6213 1.5608 21.5837 1.2727C19.705 0.75 12.1679 0.75 12.1679 0.75C12.1679 0.75 4.63091 0.75 2.75211 1.2727C1.71451 1.5608 0.899108 2.40658 0.621355 3.48284C0.117432 5.43162 0.117432 9.5 0.117432 9.5C0.117432 9.5 0.117432 13.5684 0.621355 15.5172C0.899108 16.5935 1.71451 17.4392 2.75211 17.7273C4.63091 18.25 12.1679 18.25 12.1679 18.25C12.1679 18.25 19.705 18.25 21.5837 17.7273C22.6213 17.4392 23.4368 16.5935 23.7145 15.5172C24.2185 13.5684 24.2185 9.5 24.2185 9.5C24.2185 9.5 24.2164 5.43162 23.7145 3.48284Z" fill="#FF0000"/>
<path d="M9.75562 13.2498L16.017 9.50041L9.75562 5.75098V13.2498Z" fill="white"/>
<path d="M29.3072 12.1282L26.6011 1.99121H28.962L29.9103 6.5864C30.1524 7.71822 30.3289 8.68335 30.444 9.4818H30.5134C30.5928 8.90971 30.7714 7.95076 31.0471 6.60286L32.0291 1.99121H34.3901L31.6502 12.1282V16.9909H29.3052V12.1282H29.3072Z" fill="white"/>
<path d="M35.1 16.6694C34.6239 16.3361 34.2846 15.8174 34.0823 15.1137C33.8819 14.4099 33.7808 13.4757 33.7808 12.3068V10.716C33.7808 9.53686 33.8958 8.58823 34.126 7.87415C34.3561 7.16008 34.7152 6.63739 35.2032 6.31019C35.6913 5.98299 36.3321 5.81836 37.1257 5.81836C37.9074 5.81836 38.5323 5.98505 39.0044 6.31842C39.4746 6.65179 39.8198 7.17449 40.0381 7.88239C40.2563 8.59235 40.3655 9.53686 40.3655 10.716V12.3068C40.3655 13.4757 40.2583 14.414 40.0461 15.1219C39.8338 15.8319 39.4886 16.3505 39.0124 16.6777C38.5362 17.0049 37.8895 17.1695 37.0741 17.1695C36.2329 17.1715 35.5762 17.0028 35.1 16.6694ZM37.7705 14.9532C37.9014 14.5952 37.9689 14.0128 37.9689 13.202V9.78799C37.9689 9.00186 37.9034 8.42566 37.7705 8.06348C37.6375 7.69924 37.4054 7.51815 37.0721 7.51815C36.7507 7.51815 36.5226 7.69924 36.3916 8.06348C36.2587 8.42772 36.1932 9.00186 36.1932 9.78799V13.202C36.1932 14.0128 36.2567 14.5972 36.3837 14.9532C36.5107 15.3113 36.7388 15.4903 37.0721 15.4903C37.4054 15.4903 37.6375 15.3113 37.7705 14.9532Z" fill="white"/>
<path d="M48.0455 16.993H46.1845L45.9782 15.6512H45.9266C45.4207 16.6637 44.6628 17.1699 43.651 17.1699C42.9507 17.1699 42.4329 16.9312 42.0996 16.4559C41.7663 15.9784 41.5996 15.2335 41.5996 14.2211V6.03282H43.9784V14.0769C43.9784 14.5668 44.0299 14.9145 44.1331 15.1224C44.2363 15.3302 44.4089 15.4351 44.6509 15.4351C44.8572 15.4351 45.0557 15.3693 45.2461 15.2376C45.4366 15.1059 45.5755 14.9392 45.6687 14.7376V6.03076H48.0455V16.993Z" fill="white"/>
<path d="M54.5073 3.97669H52.1463V16.9926H49.8192V3.97669H47.4583V1.99292H54.5073V3.97669Z" fill="white"/>
<path d="M60.2447 16.993H58.3837L58.1774 15.6512H58.1259C57.62 16.6637 56.8621 17.1699 55.8502 17.1699C55.1499 17.1699 54.6321 16.9312 54.2988 16.4559C53.9655 15.9784 53.7988 15.2335 53.7988 14.2211V6.03282H56.1776V14.0769C56.1776 14.5668 56.2292 14.9145 56.3323 15.1224C56.4355 15.3302 56.6081 15.4351 56.8502 15.4351C57.0565 15.4351 57.2549 15.3693 57.4453 15.2376C57.6358 15.1059 57.7747 14.9392 57.8679 14.7376V6.03076H60.2447V16.993Z" fill="white"/>
<path d="M68.1171 7.78392C67.9723 7.09249 67.7401 6.59243 67.4188 6.28169C67.0974 5.97096 66.6549 5.81662 66.0915 5.81662C65.6551 5.81662 65.2463 5.9442 64.8674 6.20143C64.4885 6.45867 64.1948 6.7941 63.9885 7.21184H63.9707V1.4375H61.6792V16.9908H63.6433L63.8853 15.9536H63.9369C64.1214 16.324 64.3972 16.6142 64.7642 16.8303C65.1313 17.0443 65.54 17.1513 65.9884 17.1513C66.7919 17.1513 67.3851 16.7665 67.764 15.9989C68.1429 15.2292 68.3333 14.0295 68.3333 12.3956V10.6608C68.3333 9.43638 68.2599 8.47537 68.1171 7.78392ZM65.9367 12.2556C65.9367 13.054 65.905 13.6797 65.8415 14.1324C65.778 14.5851 65.6729 14.9083 65.5221 15.0975C65.3733 15.2889 65.1709 15.3836 64.919 15.3836C64.7226 15.3836 64.542 15.3362 64.3753 15.2395C64.2087 15.1449 64.0739 15.0008 63.9707 14.8115V8.5906C64.05 8.29221 64.1889 8.04939 64.3853 7.85801C64.5797 7.66663 64.794 7.57196 65.0221 7.57196C65.2642 7.57196 65.4507 7.67074 65.5817 7.86624C65.7145 8.06379 65.8058 8.39305 65.8574 8.85813C65.909 9.3232 65.9348 9.98376 65.9348 10.8419V12.2556H65.9367Z" fill="white"/>
<path d="M71.708 12.8874C71.708 13.5911 71.7278 14.118 71.7675 14.4699C71.8072 14.8217 71.8905 15.077 72.0175 15.2395C72.1444 15.4 72.3389 15.4803 72.6027 15.4803C72.9579 15.4803 73.2039 15.3362 73.3348 15.0502C73.4677 14.7642 73.5392 14.2868 73.5511 13.62L75.6025 13.7455C75.6144 13.8402 75.6203 13.9718 75.6203 14.1385C75.6203 15.151 75.3525 15.9083 74.8188 16.4084C74.2852 16.9084 73.5292 17.1595 72.5531 17.1595C71.3807 17.1595 70.5593 16.7788 70.0891 16.0153C69.6169 15.2519 69.3828 14.0727 69.3828 12.4758V10.562C69.3828 8.91777 69.6269 7.71598 70.1149 6.9587C70.603 6.2014 71.4382 5.82275 72.6226 5.82275C73.438 5.82275 74.0649 5.9771 74.5014 6.28783C74.9378 6.59856 75.2453 7.0801 75.4239 7.73656C75.6025 8.39301 75.6917 9.29847 75.6917 10.455V12.3317H71.708V12.8874ZM72.0095 7.72216C71.8885 7.87649 71.8092 8.12961 71.7675 8.4815C71.7278 8.8334 71.708 9.36638 71.708 10.0826V10.8687H73.4479V10.0826C73.4479 9.37873 73.4241 8.84575 73.3785 8.4815C73.3329 8.11727 73.2495 7.86209 73.1285 7.71187C73.0075 7.56371 72.821 7.48756 72.569 7.48756C72.3151 7.48962 72.1286 7.56782 72.0095 7.72216Z" fill="white"/>
</svg>
